<svg width="32" height="32" viewBox="0 0 32 32" fill="none" xmlns="http://www.w3.org/2000/svg">
<circle cx="16" cy="16" r="16" fill="url(#paint0_linear_449_382)"/>
<path fill-rule="evenodd" clip-rule="evenodd" d="M9.25 13C9.25 10.7909 11.0409 9 13.25 9H19C21.2091 9 23 10.7909 23 13V18.75C23 20.9591 21.2091 22.75 19 22.75H13.25C11.0409 22.75 9.25 20.9591 9.25 18.75V13ZM20.25 12.5C20.25 12.9142 19.9142 13.25 19.5 13.25C19.0858 13.25 18.75 12.9142 18.75 12.5C18.75 12.0858 19.0858 11.75 19.5 11.75C19.9142 11.75 20.25 12.0858 20.25 12.5ZM16 19C17.6569 19 19 17.6009 19 15.875C19 14.1491 17.6569 12.75 16 12.75C14.3431 12.75 13 14.1491 13 15.875C13 17.6009 14.3431 19 16 19Z" fill="black"/>
<defs>
<linearGradient id="paint0_linear_449_382" x1="0.573639" y1="16.0004" x2="28.6562" y2="16.0004" gradientUnits="userSpaceOnUse">
<stop stop-color="#D4B86A"/>
<stop offset="0.302357" stop-color="#FFF4B0"/>
<stop offset="0.617578" stop-color="#BA8B2C"/>
<stop offset="1" stop-color="#DCC290"/>
</linearGradient>
</defs>
</svg>
