<svg width="32" height="32" viewBox="0 0 32 32" fill="none" xmlns="http://www.w3.org/2000/svg">
<circle cx="16" cy="16" r="16" fill="url(#paint0_linear_449_388)"/>
<path d="M13.5 22.9812C10.633 23.1727 8 21.3556 8 21.3556C8 21.3556 10.25 21.3556 11 21.1056C11.75 20.8556 12.625 20.1056 12.625 20.1056L10.75 19.2306L9.57592 17.8562H10.75V17.4806C10.75 17.4806 9.67353 17.1353 9.25 16.6056C8.77672 16.0138 8.75 14.7306 8.75 14.7306L10.125 14.9806C8.125 12.9806 8.5 11.4812 9.375 10.7312C9.375 10.7312 9.75 11.48 11.625 12.7306C13.5 13.9812 15.75 13.9812 15.75 13.9812C15.75 13.9812 15.25 12.4818 16.75 10.7312C18.25 8.98061 20.375 10.1062 20.375 10.1062L21.5 11.1056L23.375 10.1062L22.625 11.8562L23.875 11.4812C23.875 11.4812 23.5 12.4812 22.625 13.2312C21.75 13.9812 22.25 14.2306 22.125 15.3556C22 16.4806 21.1776 19.0791 19.375 20.7312C17.5638 22.3912 16.367 22.7897 13.5 22.9812Z" fill="black"/>
<defs>
<linearGradient id="paint0_linear_449_388" x1="0.573639" y1="16.0004" x2="28.6562" y2="16.0004" gradientUnits="userSpaceOnUse">
<stop stop-color="#D4B86A"/>
<stop offset="0.302357" stop-color="#FFF4B0"/>
<stop offset="0.617578" stop-color="#BA8B2C"/>
<stop offset="1" stop-color="#DCC290"/>
</linearGradient>
</defs>
</svg>
