<svg width="25" height="25" viewBox="0 0 25 25" fill="none" xmlns="http://www.w3.org/2000/svg">
<path d="M12.5003 6.24984C13.6462 6.24984 14.5837 7.18734 14.5837 8.33317C14.5837 9.479 13.6462 10.4165 12.5003 10.4165C11.3545 10.4165 10.417 9.479 10.417 8.33317C10.417 7.18734 11.3545 6.24984 12.5003 6.24984ZM12.5003 15.6248C15.3128 15.6248 18.542 16.9686 18.7503 17.7082V18.7498H6.25033V17.7186C6.45866 16.9686 9.68783 15.6248 12.5003 15.6248ZM12.5003 4.1665C10.1982 4.1665 8.33366 6.03109 8.33366 8.33317C8.33366 10.6353 10.1982 12.4998 12.5003 12.4998C14.8024 12.4998 16.667 10.6353 16.667 8.33317C16.667 6.03109 14.8024 4.1665 12.5003 4.1665ZM12.5003 13.5415C9.71908 13.5415 4.16699 14.9373 4.16699 17.7082V20.8332H20.8337V17.7082C20.8337 14.9373 15.2816 13.5415 12.5003 13.5415Z" fill="black"/>
</svg>
