<svg width="443" height="96" viewBox="0 0 443 96" fill="none" xmlns="http://www.w3.org/2000/svg">
<path d="M118 60.8848V29.3848H145V33.8848H149.5V47.3848H145V51.8848H127V60.8848H118ZM127 47.3848H140.5V33.8848H127V47.3848ZM158.5 60.8848V56.3848H154V33.8848H158.5V29.3848H181V33.8848H185.5V56.3848H181V60.8848H158.5ZM163 56.3848H176.5V33.8848H163V56.3848ZM194.5 60.8848V56.3848H190V29.3848H199V47.3848H203.5V29.3848H208V47.3848H212.5V29.3848H221.5V56.3848H217V60.8848H212.5V56.3848H208V51.8848H203.5V56.3848H199V60.8848H194.5ZM226 60.8848V29.3848H257.5V33.8848H235V42.8848H253V47.3848H235V56.3848H257.5V60.8848H226ZM262 60.8848V29.3848H289V33.8848H293.5V47.3848H284.5V51.8848H289V56.3848H293.5V60.8848H280V56.3848H275.5V51.8848H271V60.8848H262ZM271 47.3848H280V42.8848H284.5V33.8848H271V47.3848ZM338.5 60.8848V56.3848H334V29.3848H343V56.3848H356.5V29.3848H365.5V56.3848H361V60.8848H338.5ZM370 60.8848V29.3848H397V33.8848H401.5V47.3848H397V51.8848H379V60.8848H370ZM379 47.3848H392.5V33.8848H379V47.3848ZM415 51.8848V29.3848H428.5V42.8848H424V51.8848H415ZM415 60.8848V56.3848H424V60.8848H415Z" fill="url(#paint0_linear_58_866)"/>
<path fill-rule="evenodd" clip-rule="evenodd" d="M15.7051 51.1869C-5.92806 82.6364 45.965 103.602 51.4907 67.2164L70.2794 51.7527C106.088 54.3125 97.1516 -1.30193 61.6631 13.362L50.9847 22.1508L26.6539 42.1757L15.7051 51.1869ZM27.3681 56.6973L22.5921 60.6281L26.4574 65.3098L21.8616 69.0923L25.9544 74.0493L30.5502 70.2668L34.643 75.2239L39.419 71.2931L35.3262 66.336L40.1924 62.331L36.0996 57.374L31.2335 61.379L27.3681 56.6973ZM72.8812 25.4827C72.7436 21.7415 67.3514 17.7768 63.3754 23.5932L61.0868 37.5025C62.3839 44.2979 69.6733 42.7697 70.7451 38.1102L72.8812 25.4827ZM84.3696 25.7405C84.232 21.9993 78.8398 18.0347 74.8637 23.851L72.5752 37.7604C73.8723 44.5558 81.1617 43.0275 82.2335 38.368L84.3696 25.7405ZM45.8591 55.3545L46.2631 49.7029C46.859 48.1332 48.0203 48.2567 48.3655 49.5914L47.8571 55.4831C47.1998 56.795 46.3016 56.5321 45.8591 55.3545ZM53.0539 49.5871L53.4579 43.9355C54.0537 42.3659 55.2151 42.4893 55.5603 43.824L55.0519 49.7157C54.3945 51.0276 53.4964 50.7647 53.0539 49.5871Z" fill="url(#paint1_linear_58_866)"/>
<path d="M15.4252 47.64C14.2537 48.6042 14.5683 49.81 15.7051 51.1869L26.6539 42.1757C25.9339 41.3036 24.797 39.9267 23.0849 41.3358L15.4252 47.64Z" fill="url(#paint2_linear_58_866)"/>
<path d="M61.6631 13.362C60.3368 11.7556 59.8062 11.113 58.0941 12.5222L50.5696 18.7151C49.1278 19.9017 49.5067 20.3607 50.9847 22.1508L61.6631 13.362Z" fill="url(#paint3_linear_58_866)"/>
<ellipse rx="3.09281" ry="3.15464" transform="matrix(0.772118 -0.635478 0.636678 0.77113 67.961 25.7553)" fill="url(#paint4_linear_58_866)"/>
<ellipse rx="3.09281" ry="3.15464" transform="matrix(0.772118 -0.635478 0.636678 0.77113 65.9766 37.1005)" fill="url(#paint5_linear_58_866)"/>
<ellipse rx="3.09281" ry="3.15464" transform="matrix(0.772118 -0.635478 0.636678 0.77113 79.4942 25.9755)" fill="url(#paint6_linear_58_866)"/>
<ellipse rx="3.09281" ry="3.15464" transform="matrix(0.772118 -0.635478 0.636678 0.77113 77.4346 37.2299)" fill="url(#paint7_linear_58_866)"/>
<defs>
<linearGradient id="paint0_linear_58_866" x1="142.089" y1="47.1631" x2="631.477" y2="47.163" gradientUnits="userSpaceOnUse">
<stop stop-color="#D4B86A"/>
<stop offset="0.302357" stop-color="#FFF4B0"/>
<stop offset="0.617578" stop-color="#BA8B2C"/>
<stop offset="1" stop-color="#DCC290"/>
</linearGradient>
<linearGradient id="paint1_linear_58_866" x1="15.6262" y1="76.5884" x2="79.8742" y2="23.5426" gradientUnits="userSpaceOnUse">
<stop stop-color="#D4B86A"/>
<stop offset="0.302357" stop-color="#FFF4B0"/>
<stop offset="0.617578" stop-color="#BA8B2C"/>
<stop offset="1" stop-color="#DCC290"/>
</linearGradient>
<linearGradient id="paint2_linear_58_866" x1="15.6262" y1="76.5884" x2="79.8742" y2="23.5426" gradientUnits="userSpaceOnUse">
<stop stop-color="#D4B86A"/>
<stop offset="0.302357" stop-color="#FFF4B0"/>
<stop offset="0.617578" stop-color="#BA8B2C"/>
<stop offset="1" stop-color="#DCC290"/>
</linearGradient>
<linearGradient id="paint3_linear_58_866" x1="15.6262" y1="76.5884" x2="79.8742" y2="23.5426" gradientUnits="userSpaceOnUse">
<stop stop-color="#D4B86A"/>
<stop offset="0.302357" stop-color="#FFF4B0"/>
<stop offset="0.617578" stop-color="#BA8B2C"/>
<stop offset="1" stop-color="#DCC290"/>
</linearGradient>
<linearGradient id="paint4_linear_58_866" x1="0.110885" y1="3.15471" x2="5.53926" y2="3.15471" gradientUnits="userSpaceOnUse">
<stop stop-color="#D4B86A"/>
<stop offset="0.302357" stop-color="#FFF4B0"/>
<stop offset="0.617578" stop-color="#BA8B2C"/>
<stop offset="1" stop-color="#DCC290"/>
</linearGradient>
<linearGradient id="paint5_linear_58_866" x1="0.110885" y1="3.15471" x2="5.53926" y2="3.15471" gradientUnits="userSpaceOnUse">
<stop stop-color="#D4B86A"/>
<stop offset="0.302357" stop-color="#FFF4B0"/>
<stop offset="0.617578" stop-color="#BA8B2C"/>
<stop offset="1" stop-color="#DCC290"/>
</linearGradient>
<linearGradient id="paint6_linear_58_866" x1="0.110885" y1="3.15471" x2="5.53926" y2="3.15471" gradientUnits="userSpaceOnUse">
<stop stop-color="#D4B86A"/>
<stop offset="0.302357" stop-color="#FFF4B0"/>
<stop offset="0.617578" stop-color="#BA8B2C"/>
<stop offset="1" stop-color="#DCC290"/>
</linearGradient>
<linearGradient id="paint7_linear_58_866" x1="0.110885" y1="3.15471" x2="5.53926" y2="3.15471" gradientUnits="userSpaceOnUse">
<stop stop-color="#D4B86A"/>
<stop offset="0.302357" stop-color="#FFF4B0"/>
<stop offset="0.617578" stop-color="#BA8B2C"/>
<stop offset="1" stop-color="#DCC290"/>
</linearGradient>
</defs>
</svg>
